<?xml version="1.0" encoding="utf-8"?>
<!-- Generator: Adobe Illustrator 24.0.0, SVG Export Plug-In . SVG Version: 6.00 Build 0)  -->
<svg version="1.1" id="Capa_1" xmlns="http://www.w3.org/2000/svg" xmlns:xlink="http://www.w3.org/1999/xlink" x="0px" y="0px"
	 width="116.6px" height="14.8px" viewBox="0 0 116.6 14.8" style="enable-background:new 0 0 116.6 14.8;" xml:space="preserve">
<style type="text/css">
	.st0{fill:#FFFFFF;}
</style>
<g>
	<path class="st0" d="M7.1,10.5L6.2,7.7H3l-0.9,2.8H0.1l3-10H6l3,10H7.1z M5,3.4C4.9,3.1,4.9,2.9,4.8,2.6C4.7,2.3,4.7,2.1,4.6,1.8
		H4.5C4.5,2.1,4.4,2.3,4.4,2.6C4.3,2.9,4.2,3.1,4.2,3.4L3.3,6.1h2.5L5,3.4z"/>
	<path class="st0" d="M15.2,10.5V5.7c0-0.3,0-0.5,0-0.7c0-0.2-0.1-0.3-0.2-0.5c-0.1-0.1-0.2-0.2-0.3-0.3c-0.1-0.1-0.3-0.1-0.5-0.1
		c-0.3,0-0.6,0-0.9,0.1c-0.3,0.1-0.7,0.2-1.1,0.4v5.8h-1.8V2.9H12v0.6c0.4-0.2,0.8-0.4,1.2-0.6c0.4-0.1,0.8-0.2,1.3-0.2
		c0.5,0,1,0.1,1.3,0.2c0.3,0.1,0.6,0.4,0.7,0.6c0.2,0.3,0.3,0.6,0.3,0.9C16.9,4.8,17,5.2,17,5.7v4.8H15.2z"/>
	<path class="st0" d="M21.6,10.5v-10h1.9v10H21.6z"/>
	<path class="st0" d="M30.4,10.5V5.7c0-0.3,0-0.5,0-0.7c0-0.2-0.1-0.3-0.2-0.5c-0.1-0.1-0.2-0.2-0.3-0.3c-0.1-0.1-0.3-0.1-0.5-0.1
		c-0.3,0-0.6,0-0.9,0.1c-0.3,0.1-0.7,0.2-1.1,0.4v5.8h-1.8V2.9h1.7v0.6c0.4-0.2,0.8-0.4,1.2-0.6c0.4-0.1,0.8-0.2,1.3-0.2
		c0.5,0,1,0.1,1.3,0.2c0.3,0.1,0.6,0.4,0.7,0.6c0.2,0.3,0.3,0.6,0.3,0.9c0.1,0.4,0.1,0.8,0.1,1.2v4.8H30.4z"/>
	<path class="st0" d="M38.8,10.5v-0.4c-0.3,0.2-0.6,0.3-0.9,0.4c-0.4,0.1-0.8,0.2-1.2,0.2c-0.4,0-0.8-0.1-1.2-0.2
		c-0.4-0.1-0.6-0.3-0.9-0.6c-0.2-0.3-0.4-0.6-0.6-1.1c-0.1-0.4-0.2-0.9-0.2-1.5V6.2c0-0.7,0.1-1.2,0.2-1.7c0.2-0.5,0.4-0.8,0.7-1.1
		c0.3-0.3,0.6-0.5,1-0.6c0.4-0.1,0.8-0.2,1.3-0.2c0.3,0,0.6,0,0.8,0c0.3,0,0.5,0.1,0.8,0.1V0h1.8v10.5H38.8z M38.7,4.3
		c-0.3,0-0.5-0.1-0.8-0.1c-0.3,0-0.5,0-0.6,0c-0.3,0-0.5,0-0.7,0.1c-0.2,0.1-0.4,0.1-0.5,0.3c-0.1,0.1-0.3,0.4-0.3,0.6
		c-0.1,0.3-0.1,0.6-0.1,1v1.1c0,0.3,0,0.6,0.1,0.9c0.1,0.2,0.1,0.4,0.3,0.6c0.1,0.2,0.3,0.3,0.5,0.3c0.2,0.1,0.4,0.1,0.7,0.1
		c0.3,0,0.5,0,0.8-0.1c0.3-0.1,0.5-0.1,0.7-0.2V4.3z"/>
	<path class="st0" d="M42.4,10.5V2.9h1.7v0.6c0.2-0.2,0.4-0.3,0.6-0.4c0.2-0.1,0.4-0.2,0.6-0.3c0.2-0.1,0.4-0.1,0.7-0.1
		c0.2,0,0.5,0,0.7,0v1.6c-0.2,0-0.5,0-0.7,0c-0.2,0-0.5,0.1-0.7,0.1s-0.4,0.1-0.6,0.1c-0.2,0.1-0.4,0.1-0.5,0.2v5.7H42.4z"/>
	<path class="st0" d="M51.7,10.5V10c-0.1,0.1-0.3,0.2-0.4,0.2s-0.3,0.2-0.5,0.2c-0.2,0.1-0.4,0.1-0.7,0.2c-0.2,0-0.5,0.1-0.8,0.1
		c-0.7,0-1.3-0.2-1.6-0.5s-0.6-0.9-0.6-1.6V8.2c0-0.5,0.1-0.9,0.3-1.2c0.2-0.3,0.4-0.5,0.7-0.7c0.3-0.2,0.7-0.3,1.1-0.3
		c0.4,0,0.9-0.1,1.5-0.1h0.9V5.5c0-0.3,0-0.5-0.1-0.7c0-0.2-0.1-0.3-0.2-0.4c-0.1-0.1-0.3-0.2-0.5-0.2c-0.2,0-0.5,0-0.8,0
		c-0.4,0-0.8,0-1.2,0c-0.4,0-0.8,0.1-1.2,0.1V3.1C47.7,3.1,47.8,3,48,3c0.2,0,0.4-0.1,0.6-0.1c0.2,0,0.5-0.1,0.8-0.1
		c0.3,0,0.6,0,0.9,0c0.6,0,1.1,0.1,1.5,0.2s0.7,0.3,0.9,0.5c0.2,0.2,0.4,0.5,0.5,0.9c0.1,0.3,0.1,0.8,0.1,1.3v5H51.7z M51.6,7h-0.9
		c-0.3,0-0.6,0-0.8,0c-0.2,0-0.4,0.1-0.6,0.2c-0.2,0.1-0.3,0.2-0.3,0.3c-0.1,0.2-0.1,0.4-0.1,0.6v0.3c0,0.2,0,0.3,0.1,0.4
		C49,9,49,9.1,49.1,9.2c0.1,0.1,0.2,0.1,0.3,0.1c0.1,0,0.3,0,0.4,0c0.2,0,0.4,0,0.5,0c0.2,0,0.3-0.1,0.5-0.1c0.2,0,0.3-0.1,0.4-0.2
		C51.5,9,51.6,9,51.6,8.9V7z"/>
	<path class="st0" d="M63.1,10.4c-0.1,0-0.2,0-0.4,0.1c-0.1,0-0.3,0.1-0.5,0.1c-0.2,0-0.4,0.1-0.7,0.1c-0.2,0-0.5,0-0.8,0
		c-1.1,0-1.9-0.3-2.4-0.9c-0.5-0.6-0.8-1.5-0.8-2.6v-1c0-1.2,0.3-2,0.8-2.6c0.5-0.6,1.3-0.9,2.4-0.9c0.3,0,0.6,0,0.8,0
		c0.2,0,0.5,0,0.7,0.1c0.2,0,0.4,0.1,0.5,0.1c0.1,0,0.3,0.1,0.4,0.1v1.4c-0.5,0-0.9-0.1-1.2-0.1c-0.3,0-0.6,0-0.8,0
		c-0.3,0-0.5,0-0.7,0.1c-0.2,0.1-0.4,0.2-0.5,0.3c-0.1,0.1-0.3,0.4-0.3,0.6c-0.1,0.3-0.1,0.6-0.1,1v1c0,0.4,0,0.7,0.1,1
		c0.1,0.3,0.2,0.5,0.3,0.6C60,8.9,60.2,9,60.4,9.1c0.2,0.1,0.5,0.1,0.7,0.1c0.2,0,0.5,0,0.8,0c0.3,0,0.7,0,1.2-0.1V10.4z"/>
	<path class="st0" d="M71.2,7.1c0,1.2-0.3,2.1-0.9,2.7s-1.4,0.9-2.5,0.9s-2-0.3-2.5-0.9c-0.6-0.6-0.9-1.5-0.9-2.7V6.2
		c0-1.2,0.3-2.1,0.9-2.7c0.6-0.6,1.4-0.9,2.5-0.9s2,0.3,2.5,0.9s0.9,1.5,0.9,2.7V7.1z M69.5,6.2c0-0.4,0-0.7-0.1-0.9
		s-0.2-0.5-0.3-0.6c-0.1-0.2-0.3-0.3-0.5-0.3c-0.2-0.1-0.5-0.1-0.7-0.1c-0.3,0-0.5,0-0.7,0.1c-0.2,0.1-0.4,0.2-0.5,0.3
		S66.3,5,66.3,5.3c-0.1,0.3-0.1,0.6-0.1,0.9v0.9c0,0.4,0,0.7,0.1,0.9c0.1,0.3,0.2,0.5,0.3,0.6C66.7,8.9,66.9,9,67.1,9
		c0.2,0.1,0.5,0.1,0.7,0.1s0.5,0,0.7-0.1c0.2-0.1,0.4-0.2,0.5-0.3c0.1-0.2,0.2-0.4,0.3-0.6c0.1-0.3,0.1-0.6,0.1-0.9V6.2z"/>
	<path class="st0" d="M81.5,10.5v-5c0-0.2,0-0.4,0-0.6c0-0.2,0-0.3-0.1-0.4c-0.1-0.1-0.2-0.2-0.3-0.3c-0.1-0.1-0.3-0.1-0.5-0.1
		c-0.1,0-0.2,0-0.4,0c-0.1,0-0.3,0-0.4,0.1c-0.1,0-0.3,0.1-0.4,0.1c-0.1,0.1-0.3,0.1-0.4,0.2c0,0.1,0,0.3,0,0.4c0,0.1,0,0.3,0,0.4v5
		h-1.8v-5c0-0.2,0-0.4,0-0.6c0-0.2,0-0.3-0.1-0.4c-0.1-0.1-0.1-0.2-0.3-0.3c-0.1-0.1-0.3-0.1-0.5-0.1c-0.1,0-0.3,0-0.4,0
		c-0.1,0-0.3,0.1-0.4,0.1c-0.1,0-0.3,0.1-0.4,0.2c-0.1,0.1-0.3,0.1-0.4,0.2v5.8h-1.8V2.9h1.7v0.6c0.3-0.2,0.7-0.4,1.1-0.6
		c0.4-0.1,0.8-0.2,1.2-0.2c0.5,0,0.8,0.1,1.1,0.2c0.3,0.1,0.5,0.3,0.6,0.6C79,3.2,79.5,3,79.8,2.9s0.8-0.2,1.1-0.2
		c0.4,0,0.7,0,0.9,0.1c0.3,0.1,0.5,0.2,0.6,0.3c0.2,0.1,0.3,0.3,0.4,0.5c0.1,0.2,0.2,0.4,0.2,0.6c0.1,0.2,0.1,0.4,0.1,0.6
		c0,0.2,0,0.5,0,0.7v5H81.5z"/>
	<path class="st0" d="M85.2,13.3V2.9h1.7v0.5c0.3-0.2,0.7-0.4,1.1-0.5c0.4-0.1,0.8-0.2,1.1-0.2c0.4,0,0.8,0.1,1.1,0.2
		c0.3,0.1,0.6,0.3,0.9,0.6c0.2,0.3,0.4,0.7,0.5,1.1c0.1,0.5,0.2,1,0.2,1.7V7c0,0.7-0.1,1.3-0.2,1.8c-0.2,0.5-0.4,0.9-0.7,1.1
		s-0.6,0.5-1.1,0.6c-0.4,0.1-0.9,0.2-1.4,0.2c-0.1,0-0.2,0-0.4,0c-0.1,0-0.3,0-0.4,0c-0.1,0-0.3,0-0.4-0.1c-0.1,0-0.2,0-0.3-0.1v2.8
		H85.2z M90,6.3c0-0.4,0-0.7-0.1-1c-0.1-0.3-0.1-0.5-0.3-0.6c-0.1-0.2-0.3-0.3-0.5-0.3c-0.2-0.1-0.4-0.1-0.6-0.1c-0.1,0-0.2,0-0.4,0
		c-0.1,0-0.2,0-0.4,0.1c-0.1,0-0.3,0.1-0.4,0.1s-0.3,0.1-0.5,0.2V9c0.3,0,0.5,0.1,0.7,0.1c0.2,0,0.5,0,0.7,0c0.3,0,0.5,0,0.7-0.1
		c0.2-0.1,0.4-0.2,0.5-0.3s0.3-0.4,0.3-0.7C90,7.8,90,7.4,90,7V6.3z"/>
	<path class="st0" d="M97.7,10.5V10c-0.1,0.1-0.3,0.2-0.4,0.2c-0.2,0.1-0.3,0.2-0.5,0.2c-0.2,0.1-0.4,0.1-0.7,0.2
		c-0.2,0-0.5,0.1-0.8,0.1c-0.7,0-1.3-0.2-1.6-0.5c-0.4-0.4-0.6-0.9-0.6-1.6V8.2c0-0.5,0.1-0.9,0.3-1.2c0.2-0.3,0.4-0.5,0.7-0.7
		c0.3-0.2,0.7-0.3,1.1-0.3c0.4,0,0.9-0.1,1.5-0.1h0.9V5.5c0-0.3,0-0.5-0.1-0.7c0-0.2-0.1-0.3-0.2-0.4c-0.1-0.1-0.3-0.2-0.5-0.2
		c-0.2,0-0.5,0-0.8,0c-0.4,0-0.8,0-1.2,0c-0.4,0-0.8,0.1-1.2,0.1V3.1C93.7,3.1,93.8,3,94,3c0.2,0,0.4-0.1,0.6-0.1
		c0.2,0,0.5-0.1,0.8-0.1c0.3,0,0.6,0,0.9,0c0.6,0,1.1,0.1,1.5,0.2s0.7,0.3,0.9,0.5c0.2,0.2,0.4,0.5,0.5,0.9c0.1,0.3,0.1,0.8,0.1,1.3
		v5H97.7z M97.6,7h-0.9c-0.3,0-0.6,0-0.8,0c-0.2,0-0.4,0.1-0.6,0.2c-0.2,0.1-0.3,0.2-0.3,0.3c-0.1,0.2-0.1,0.4-0.1,0.6v0.3
		c0,0.2,0,0.3,0.1,0.4C95,9,95,9.1,95.1,9.2c0.1,0.1,0.2,0.1,0.3,0.1c0.1,0,0.3,0,0.4,0c0.2,0,0.4,0,0.5,0c0.2,0,0.3-0.1,0.5-0.1
		c0.2,0,0.3-0.1,0.4-0.2C97.5,9,97.6,9,97.6,8.9V7z"/>
	<path class="st0" d="M106.1,10.5V5.7c0-0.3,0-0.5,0-0.7c0-0.2-0.1-0.3-0.2-0.5c-0.1-0.1-0.2-0.2-0.3-0.3c-0.1-0.1-0.3-0.1-0.5-0.1
		c-0.3,0-0.6,0-0.9,0.1c-0.3,0.1-0.7,0.2-1.1,0.4v5.8h-1.8V2.9h1.7v0.6c0.4-0.2,0.8-0.4,1.2-0.6c0.4-0.1,0.8-0.2,1.3-0.2
		c0.5,0,1,0.1,1.3,0.2c0.3,0.1,0.6,0.4,0.7,0.6s0.3,0.6,0.3,0.9c0.1,0.4,0.1,0.8,0.1,1.2v4.8H106.1z"/>
	<path class="st0" d="M111.9,10.4l-2.8-7.5h1.9l1.3,4c0.1,0.2,0.1,0.3,0.1,0.5c0,0.2,0.1,0.3,0.1,0.5c0,0.2,0.1,0.3,0.1,0.5
		c0,0.2,0.1,0.3,0.1,0.5c0.1-0.4,0.2-0.7,0.2-1c0.1-0.3,0.2-0.7,0.3-1l1.2-4h1.8l-2.6,7.9c-0.2,0.4-0.3,0.8-0.5,1.2
		s-0.3,0.6-0.6,0.8c-0.2,0.2-0.5,0.4-0.8,0.5c-0.3,0.1-0.6,0.2-1.1,0.2c-0.4,0-0.7,0-1-0.1c-0.3,0-0.6-0.1-0.8-0.1V12
		c0.2,0,0.3,0,0.4,0c0.1,0,0.2,0,0.4,0c0.1,0,0.2,0,0.3,0c0.1,0,0.2,0,0.3,0c0.2,0,0.3,0,0.4-0.1c0.1,0,0.2-0.1,0.3-0.2
		c0.1-0.1,0.2-0.2,0.2-0.4c0.1-0.1,0.1-0.3,0.2-0.5L111.9,10.4z"/>
</g>
</svg>
